<?xml version="1.0" encoding="UTF-8"?>
<svg width="179px" height="26px" viewBox="0 0 179 26" version="1.1" xmlns="http://www.w3.org/2000/svg" xmlns:xlink="http://www.w3.org/1999/xlink">
    <!-- Generator: Sketch 48.2 (47327) - http://www.bohemiancoding.com/sketch -->
    <title>Artboard</title>
    <desc>Created with Sketch.</desc>
    <defs></defs>
    <g id="Page-1" stroke="none" stroke-width="1" fill="none" fill-rule="evenodd">
        <g id="Artboard" fill="#FFFFFF" fill-rule="nonzero">
            <g id="whackathon-logo-half">
                <path d="M23.91,2.11 C22.62,7.45 19.62,19.27 18.45,25 C18,25.03 17.67,25.03 17.4,25.03 C16.86,25.03 16.5,25 15.63,25 C15.03,23.02 13.05,14.35 12.69,12.79 C12.6,12.01 12.48,11.17 12.27,8.95 C12.27,9.76 12.15,10.81 11.85,12.49 C11.61,13.72 9.51,22.12 8.67,25.15 C8.04,25.06 6.78,25.06 6.09,25 C3.9,17.62 2.28,9.13 0.36,2.02 L3.93,1.06 L4.65,2.86 C6.18,6.67 7.35,13.48 7.8,15.79 C8.25,13.39 9,9.19 11.01,1.27 L13.8,1.18 C14.85,9.4 16.53,14.32 16.83,16.96 C17.43,13.75 19.11,5.29 20.37,1.12 L23.91,2.11 Z M40.6499999,24.79 L36.8699999,25 L36.8699999,14.02 C35.4599999,13.87 34.0499999,13.96 32.7899999,14.02 C32.7899999,15.16 32.7899999,16.54 32.8199999,18.13 C32.8499999,20.02 32.7899999,21.85 32.7899999,25 C32.3699999,25 31.5299999,24.97 30.5699999,24.97 C30.0899999,24.97 29.5799999,24.97 29.0999999,25 L28.8899999,4.42 L28.9199999,1.27 C29.9699999,1.27 31.4099999,0.97 32.4599999,0.97 L32.6099999,0.97 L32.7299999,10.15 C33.9599999,10.3 35.6699999,10.27 36.8099999,10.33 C37.0199999,7.48 36.6899999,2.68 36.6899999,0.97 C37.3799999,0.97 38.9999999,1.12 40.5299999,1.18 C40.6799999,5.26 40.7099999,9.28 40.7099999,13.36 C40.7099999,17.08 40.6799999,20.86 40.6499999,24.79 Z M60.33,25.06 L56.19,25.06 C55.71,23.71 55.44,21.58 55.08,20.05 C53.4,19.93 51.5999998,20.05 49.9199998,20.08 L48.6299998,25.06 C47.9099998,25.06 47.1599998,25 46.4399998,25 C46.0799998,25 45.7199998,25 45.3599998,25.06 L45.8699998,22.66 L50.6999998,1.18 L52.6799998,1.18 C53.22,1.18 53.79,1.18 54.21,1.15 C56.28,7.66 58.17,16.81 60.33,25.06 Z M54.3,16.51 C53.76,13.51 53.22,10.39 52.5299998,7.63 C51.7799998,10.63 50.8199998,16.54 50.8199998,16.54 L54.3,16.51 Z M73.98,25.18 L73.44,25.18 C71.25,25.18 66.21,25.03 65.34,21.43 C64.92,19.69 64.62,16.96 64.62,13.9 C64.62,11.38 64.83,8.62 65.28,5.95 C65.64,3.76 67.26,1.99 68.46,1.57 C69.45,1.21 71.07,1.06 72.69,1.06 C73.11,1.06 73.5,1.06 73.92,1.09 L73.83,4.51 C72.24,4.51 69.87,4.87 68.88,7.24 C68.46,11.68 68.28,13.84 68.58,17.92 C68.79,21.01 71.91,21.4 73.86,21.4 C73.95,22.21 74.01,22.96 74.01,23.92 C74.01,24.31 74.01,24.7 73.98,25.18 Z M92.55,25 L88.38,25 C87.06,21.04 85.8,18.16 85.02,15.52 C84.21,16.72 83.76,17.8 83.1,18.85 C83.01,20.23 83.37,21.94 83.22,25 L79.5,25 L79.5,1.09 L83.13,1.15 C83.07,3.97 82.98,9.16 83.1,12.16 C85.02,8.95 86.82,4.36 88.38,1.24 C89.13,1.21 89.85,1.15 90.6,1.15 C91.05,1.15 91.5,1.18 92.01,1.21 C91.11,4.21 88.59,9.19 87.33,11.98 C89.46,16.48 90.84,20.65 92.55,25 Z" id="WHACKATHON"></path>
            </g>
        </g>
    </g>
</svg>